<svg width="21" height="18" viewBox="0 0 21 18" fill="none" xmlns="http://www.w3.org/2000/svg">
<path d="M10.0837 7.73333H12.9979V6.36806H11.3326V5.68542H9.66737V6.40219C9.16148 6.48641 8.7118 6.72173 8.40564 7.06248C8.09948 7.40322 7.95867 7.82508 8.01055 8.24616C8.06242 8.66723 8.30329 9.05748 8.68639 9.34115C9.06948 9.62482 9.56747 9.78166 10.0837 9.78124H10.9163C11.0267 9.78124 11.1326 9.8172 11.2107 9.88121C11.2888 9.94522 11.3326 10.032 11.3326 10.1226C11.3326 10.2131 11.2888 10.2999 11.2107 10.3639C11.1326 10.4279 11.0267 10.4639 10.9163 10.4639H8.0021V11.8291H9.66737V12.5118H11.3326V11.795C11.8385 11.7108 12.2882 11.4755 12.5944 11.1347C12.9005 10.794 13.0413 10.3721 12.9895 9.95104C12.9376 9.52997 12.6967 9.13972 12.3136 8.85605C11.9305 8.57238 11.4325 8.41554 10.9163 8.41596H10.0837C9.97327 8.41596 9.86738 8.38001 9.7893 8.316C9.71123 8.25199 9.66737 8.16517 9.66737 8.07465C9.66737 7.98412 9.71123 7.89731 9.7893 7.8333C9.86738 7.76929 9.97327 7.73333 10.0837 7.73333Z" fill="#031838"/>
<path d="M19.4464 7.1308H17.9916C17.9708 6.57588 17.8336 6.031 17.5883 5.52987C17.343 5.02874 16.9949 4.58203 16.5655 4.21736V1.51182C16.5655 1.38138 16.5282 1.25352 16.4579 1.14256C16.3876 1.0316 16.287 0.941934 16.1673 0.8836C16.0477 0.825266 15.9138 0.800573 15.7806 0.812287C15.6473 0.824001 15.5201 0.87166 15.4131 0.949923L12.7244 2.91657H9.3631C5.39458 2.91657 2.54748 5.19295 2.19817 8.53554H2.16071C1.9697 8.53554 1.7865 8.46154 1.65143 8.32982C1.51636 8.1981 1.44048 8.01945 1.44048 7.83317V6.42843H0V7.83317C0.000572024 8.39184 0.228402 8.92747 0.633491 9.32251C1.03858 9.71755 1.58783 9.93973 2.16071 9.94029H2.21113C2.31558 10.8613 2.62252 11.7495 3.111 12.5443C3.59948 13.3391 4.25801 14.0217 5.04167 14.5457V16.964C5.04167 17.1503 5.11755 17.3289 5.25262 17.4607C5.38769 17.5924 5.57089 17.6664 5.76191 17.6664H8.64286C8.83388 17.6664 9.01707 17.5924 9.15214 17.4607C9.28722 17.3289 9.3631 17.1503 9.3631 16.964V15.5593H11.5238V16.964C11.5238 17.1503 11.5997 17.3289 11.7348 17.4607C11.8698 17.5924 12.053 17.6664 12.2441 17.6664H15.125C15.316 17.6664 15.4992 17.5924 15.6343 17.4607C15.7694 17.3289 15.8452 17.1503 15.8452 16.964V14.6019C16.3655 14.3614 16.8204 14.0048 17.1731 13.561C17.5259 13.1172 17.7665 12.5987 17.8756 12.0474H19.4464C19.6375 12.0474 19.8206 11.9734 19.9557 11.8417C20.0908 11.71 20.1667 11.5313 20.1667 11.345V7.83317C20.1667 7.64689 20.0908 7.46824 19.9557 7.33652C19.8206 7.2048 19.6375 7.1308 19.4464 7.1308ZM18.7262 10.6427H16.6548C16.4351 12.5763 16.0613 13.0904 14.4048 13.6734V16.2616H12.9643V14.1545H7.92262V16.2616H6.48214V13.7176C5.61491 13.3153 4.88327 12.6802 4.373 11.8867C3.86274 11.0933 3.59501 10.1745 3.60119 9.23792C3.60119 5.84195 6.49511 4.32131 9.3631 4.32131H13.2041L15.125 2.91657V4.86635C16.8665 6.17276 16.5028 7.10411 16.5784 8.53554H18.7262V10.6427Z" fill="#031838"/>
</svg>
