<svg width="19" height="21" viewBox="0 0 19 21" fill="none" xmlns="http://www.w3.org/2000/svg">
<path d="M17.6291 15.5988V8.68392H17.7552C18.9652 8.68392 19.4625 7.19866 18.4733 6.52919L10.5452 1.15271C10.2397 0.945527 9.87437 0.834229 9.49978 0.834229C9.12519 0.834229 8.75987 0.945527 8.45439 1.15271L0.524893 6.52919C-0.460197 7.19866 0.0330257 8.68392 1.24305 8.68392H1.36906V15.5988C0.554703 16.0986 0.0140555 16.9714 0.0140555 17.9646V19.6907C0.0140555 19.8624 0.0854353 20.0271 0.212492 20.1485C0.339548 20.2699 0.511874 20.3381 0.691559 20.3381H18.3067C18.4863 20.3381 18.6587 20.2699 18.7857 20.1485C18.9128 20.0271 18.9842 19.8624 18.9842 19.6907V17.9646C18.9842 16.9714 18.4449 16.0973 17.6291 15.5988ZM9.23894 2.20936C9.31519 2.15774 9.40633 2.13001 9.49978 2.13001C9.59323 2.13001 9.68437 2.15774 9.76062 2.20936L17.4015 7.38901H1.59806L9.23894 2.20936ZM16.2741 8.68392V15.1663C16.1993 15.1609 16.1243 15.1584 16.0492 15.1585H13.5641V8.68392H16.2741ZM2.72407 15.1663V8.68392H5.43408V15.1585H2.95036C2.87485 15.1583 2.79937 15.1609 2.72407 15.1663ZM2.95036 16.4534H16.0492C16.9218 16.4534 17.6291 17.1293 17.6291 17.9646V19.0432H1.36906V17.9646C1.36906 17.1293 2.07773 16.4534 2.95036 16.4534ZM8.8216 15.1585H6.78909V8.68392H8.8216V15.1585ZM10.1766 15.1585V8.68392H12.2091V15.1585H10.1766Z" fill="#031838"/>
</svg>
