<svg width="20" height="20" viewBox="0 0 20 20" fill="none" xmlns="http://www.w3.org/2000/svg">
<path d="M5.1625 0.967174C6.01497 0.337599 7.05565 -0.00196584 8.125 0.000538378C8.49431 -0.0075375 8.85974 0.0753562 9.18748 0.241549C9.51522 0.407742 9.79468 0.651865 10 0.951327C10.2053 0.651865 10.4848 0.407742 10.8125 0.241549C11.1403 0.0753562 11.5057 -0.0075375 11.875 0.000538378C12.9443 -0.00196584 13.985 0.337599 14.8375 0.967174C15.4937 1.46451 16 2.15322 16.1787 2.98577C16.5887 3.01625 16.9638 3.18202 17.2787 3.43191C17.7563 3.80979 18.1038 4.37661 18.3225 4.97633C18.665 5.90884 18.7575 7.09733 18.4025 8.10906C18.4925 8.15051 18.5812 8.19927 18.6675 8.25534C19.0112 8.47841 19.2725 8.79778 19.465 9.17443C19.8438 9.91191 20 10.9407 20 12.1901C20 13.581 19.4563 14.5147 18.7663 15.0913C18.3847 15.4103 17.9344 15.6415 17.4487 15.7678C17.3237 16.448 16.9738 17.2354 16.425 17.9034C15.7125 18.775 14.6075 19.5039 13.125 19.5039C11.95 19.5039 11.015 18.87 10.4075 18.2484C10.2623 18.0999 10.1262 17.9432 10 17.7791C9.87383 17.9432 9.73775 18.1 9.5925 18.2484C8.985 18.87 8.05125 19.5039 6.875 19.5039C5.3925 19.5039 4.28875 18.775 3.575 17.9034C3.0622 17.2824 2.71097 16.5497 2.55125 15.7678C2.0656 15.6415 1.61531 15.4103 1.23375 15.0913C0.54375 14.5147 0 13.5798 0 12.1901C0 10.9407 0.1575 9.91069 0.535 9.17443C0.7275 8.79778 0.98875 8.47963 1.3325 8.25412C1.41692 8.19962 1.50552 8.15153 1.5975 8.11028C1.2425 7.09611 1.335 5.90884 1.6775 4.97633C1.89625 4.37661 2.24375 3.80979 2.72125 3.43191C3.03625 3.18202 3.41125 3.01747 3.82125 2.98577C4.00125 2.15322 4.5075 1.46451 5.16375 0.967174H5.1625ZM9.375 3.04794V3.03575L9.3725 2.9748C9.3541 2.65702 9.28928 2.34343 9.18 2.04352C9.1022 1.81711 8.96973 1.61226 8.79375 1.44623C8.60912 1.28944 8.36955 1.20822 8.125 1.2195C7.33368 1.21685 6.56306 1.46592 5.93 1.92893C5.35 2.36898 5 2.96505 5 3.65742C4.99992 3.75394 4.97634 3.84907 4.93119 3.93496C4.88605 4.02086 4.82062 4.09507 4.74031 4.15148C4.66 4.2079 4.5671 4.24491 4.46925 4.25947C4.3714 4.27402 4.27141 4.26571 4.1775 4.23521C3.9425 4.15963 3.7325 4.20229 3.50875 4.37783C3.26375 4.57286 3.025 4.91904 2.85375 5.38591C2.505 6.33913 2.54125 7.49349 3.02 8.19561C3.08837 8.2956 3.1249 8.41308 3.125 8.53326H4.0625C4.80842 8.53326 5.52379 8.82222 6.05124 9.33657C6.57868 9.85092 6.875 10.5485 6.875 11.2759V11.6843C7.29201 11.828 7.64347 12.111 7.86727 12.483C8.09107 12.855 8.17279 13.2922 8.098 13.7173C8.0232 14.1424 7.79671 14.5281 7.45854 14.8061C7.12037 15.0841 6.6923 15.2366 6.25 15.2366C5.8077 15.2366 5.37963 15.0841 5.04146 14.8061C4.70329 14.5281 4.4768 14.1424 4.402 13.7173C4.32721 13.2922 4.40893 12.855 4.63273 12.483C4.85653 12.111 5.20799 11.828 5.625 11.6843V11.2759C5.625 10.4348 4.925 9.75222 4.0625 9.75222H1.875C1.80028 9.7521 1.72618 9.73889 1.65625 9.71321L1.6525 9.72053C1.405 10.202 1.25 11.0017 1.25 12.1901C1.25 13.2372 1.64375 13.8272 2.0475 14.1649C2.48125 14.5281 2.9625 14.6281 3.125 14.6281C3.29076 14.6281 3.44973 14.6923 3.56694 14.8066C3.68415 14.9209 3.75 15.0759 3.75 15.2375C3.75 15.6861 4 16.4699 4.55 17.1428C5.08625 17.7949 5.8575 18.2849 6.875 18.2849C7.575 18.2849 8.2025 17.9034 8.6875 17.4073C8.92625 17.1635 9.1125 16.9112 9.23375 16.704C9.28894 16.6121 9.33619 16.5158 9.375 16.4163V6.70482H8.01875C7.87132 7.11147 7.58121 7.45421 7.1997 7.67245C6.81819 7.89069 6.36985 7.97039 5.93392 7.89745C5.49798 7.82451 5.10252 7.60364 4.81743 7.27387C4.53235 6.9441 4.37598 6.52666 4.37598 6.09534C4.37598 5.66402 4.53235 5.24658 4.81743 4.91681C5.10252 4.58704 5.49798 4.36617 5.93392 4.29323C6.36985 4.22029 6.81819 4.29999 7.1997 4.51823C7.58121 4.73647 7.87132 5.07921 8.01875 5.48586H9.375V3.04794ZM10.625 15.2363V16.4151C10.6638 16.5146 10.7111 16.6108 10.7662 16.7027C10.8888 16.91 11.0737 17.1623 11.3112 17.4061C11.7975 17.9022 12.4263 18.2837 13.125 18.2837C14.1425 18.2837 14.9137 17.7937 15.45 17.1416C16 16.4687 16.25 15.6849 16.25 15.2363C16.25 15.0747 16.3158 14.9197 16.4331 14.8054C16.5503 14.6911 16.7092 14.6268 16.875 14.6268C17.0375 14.6268 17.5187 14.5269 17.9525 14.1636C18.3562 13.826 18.75 13.236 18.75 12.1889C18.75 11.0004 18.5938 10.202 18.3475 9.71931C18.2651 9.53956 18.1358 9.38405 17.9725 9.26829C17.8318 9.18056 17.6669 9.13676 17.5 9.14274C17.3869 9.14268 17.276 9.11273 17.1791 9.05606C17.0821 8.99939 17.0027 8.91813 16.9493 8.82094C16.896 8.72374 16.8706 8.61426 16.876 8.50414C16.8814 8.39402 16.9174 8.28739 16.98 8.19561C17.46 7.49349 17.495 6.33913 17.1462 5.38591C16.975 4.91904 16.7362 4.57164 16.4912 4.37783C16.2675 4.20229 16.0575 4.15841 15.8225 4.23521C15.7286 4.26571 15.6286 4.27402 15.5308 4.25947C15.4329 4.24491 15.34 4.2079 15.2597 4.15148C15.1794 4.09507 15.114 4.02086 15.0688 3.93496C15.0237 3.84907 15.0001 3.75394 15 3.65742C15 2.96505 14.65 2.36898 14.0688 1.92893C13.436 1.46617 12.6659 1.21712 11.875 1.2195C11.6305 1.20822 11.3909 1.28944 11.2063 1.44623C11.0297 1.61206 10.8968 1.81695 10.8187 2.04352C10.6997 2.36192 10.6343 2.69698 10.625 3.03575V14.0186H11.5625C12.425 14.0186 13.125 13.336 13.125 12.4949V10.2581C12.708 10.1143 12.3565 9.83141 12.1327 9.45938C11.9089 9.08735 11.8272 8.65014 11.902 8.22503C11.9768 7.79992 12.2033 7.41428 12.5415 7.13627C12.8796 6.85826 13.3077 6.70578 13.75 6.70578C14.1923 6.70578 14.6204 6.85826 14.9585 7.13627C15.2967 7.41428 15.5232 7.79992 15.598 8.22503C15.6728 8.65014 15.5911 9.08735 15.3673 9.45938C15.1435 9.83141 14.792 10.1143 14.375 10.2581V12.4949C14.375 13.2223 14.0787 13.9199 13.5512 14.4342C13.0238 14.9486 12.3084 15.2375 11.5625 15.2375H10.625V15.2363ZM5.625 6.09534C5.625 6.25698 5.69085 6.41201 5.80806 6.52631C5.92527 6.64061 6.08424 6.70482 6.25 6.70482C6.41576 6.70482 6.57473 6.64061 6.69194 6.52631C6.80915 6.41201 6.875 6.25698 6.875 6.09534C6.875 5.9337 6.80915 5.77867 6.69194 5.66437C6.57473 5.55007 6.41576 5.48586 6.25 5.48586C6.08424 5.48586 5.92527 5.55007 5.80806 5.66437C5.69085 5.77867 5.625 5.9337 5.625 6.09534ZM13.75 9.14274C13.9158 9.14274 14.0747 9.07853 14.1919 8.96423C14.3092 8.84993 14.375 8.69491 14.375 8.53326C14.375 8.37162 14.3092 8.21659 14.1919 8.10229C14.0747 7.98799 13.9158 7.92378 13.75 7.92378C13.5842 7.92378 13.4253 7.98799 13.3081 8.10229C13.1908 8.21659 13.125 8.37162 13.125 8.53326C13.125 8.69491 13.1908 8.84993 13.3081 8.96423C13.4253 9.07853 13.5842 9.14274 13.75 9.14274ZM6.25 12.7996C6.08424 12.7996 5.92527 12.8638 5.80806 12.9781C5.69085 13.0924 5.625 13.2475 5.625 13.4091C5.625 13.5707 5.69085 13.7258 5.80806 13.8401C5.92527 13.9544 6.08424 14.0186 6.25 14.0186C6.41576 14.0186 6.57473 13.9544 6.69194 13.8401C6.80915 13.7258 6.875 13.5707 6.875 13.4091C6.875 13.2475 6.80915 13.0924 6.69194 12.9781C6.57473 12.8638 6.41576 12.7996 6.25 12.7996Z" fill="#031838"/>
</svg>
