<svg width="20" height="19" viewBox="0 0 20 19" fill="none" xmlns="http://www.w3.org/2000/svg">
<path d="M7.58621 0C7.22759 0 6.85517 0.115006 6.5931 0.357795C6.33104 0.600585 6.2069 0.945602 6.2069 1.27784V1.91676H0V14.6952H7.72414C7.63448 14.2863 7.58621 13.8582 7.58621 13.4173H1.37931V9.22601C1.78621 9.44324 2.25517 9.5838 2.75862 9.5838H8.97241C9.35862 9.09822 9.82759 8.66376 10.3517 8.30596H2.75862C1.93793 8.30596 1.37931 7.78844 1.37931 7.02812V3.1946H16.5517V7.02812C16.5517 7.13035 16.5448 7.22619 16.5241 7.31564C17.0207 7.4562 17.4897 7.64787 17.931 7.88428V1.91676H11.7241V1.27784C11.7241 0.945602 11.6 0.600585 11.3379 0.357795C11.0759 0.115006 10.7034 0 10.3448 0H7.58621ZM7.58621 1.27784H10.3448V1.91676H7.58621V1.27784ZM4.13793 5.75028V7.66704H5.51724V5.75028H4.13793ZM12.4138 5.75028V7.32203C12.8629 7.19199 13.325 7.10423 13.7931 7.06007V5.75028H12.4138ZM14.4828 8.30596C11.4414 8.30596 8.96552 10.5997 8.96552 13.4173C8.96552 16.235 11.4414 18.5287 14.4828 18.5287C17.5241 18.5287 20 16.235 20 13.4173C20 10.5997 17.5241 8.30596 14.4828 8.30596ZM14.4828 9.5838C16.7724 9.5838 18.6207 11.2961 18.6207 13.4173C18.6207 15.5385 16.7724 17.2508 14.4828 17.2508C12.1931 17.2508 10.3448 15.5385 10.3448 13.4173C10.3448 11.2961 12.1931 9.5838 14.4828 9.5838ZM13.7931 10.2227V14.0562H17.2414V12.7784H15.1724V10.2227H13.7931Z" fill="#031838"/>
</svg>
